<?xml version="1.0" standalone="no"?>
<!DOCTYPE svg PUBLIC "-//W3C//DTD SVG 20010904//EN"
 "http://www.w3.org/TR/2001/REC-SVG-20010904/DTD/svg10.dtd">
<svg version="1.0" xmlns="http://www.w3.org/2000/svg"
 width="720.000000pt" height="720.000000pt" viewBox="0 0 720.000000 720.000000"
 preserveAspectRatio="xMidYMid meet">

<g transform="translate(0.000000,720.000000) scale(0.100000,-0.100000)"
fill="#61dafb" stroke="none">
<path d="M3380 7104 c-19 -2 -87 -9 -150 -15 -407 -38 -886 -183 -1259 -380
-965 -511 -1630 -1418 -1825 -2489 -39 -217 -51 -358 -51 -620 0 -262 12 -403
51 -620 195 -1071 860 -1978 1825 -2489 372 -197 826 -334 1264 -383 155 -17
575 -17 730 0 1563 173 2809 1331 3089 2872 39 217 51 358 51 620 0 137 -6
298 -13 365 -49 438 -186 892 -383 1264 -546 1031 -1539 1714 -2699 1857 -117
15 -553 27 -630 18z m1120 -1629 l0 -325 -435 0 -435 0 0 -556 0 -555 78 54
c86 60 1140 786 1495 1030 125 86 227 154 227 152 0 -5 -2599 -2115 -2605
-2115 -3 0 -5 450 -5 1000 l0 1000 -440 0 -440 0 0 320 0 320 1280 0 1280 0 0
-325z m-220 -2425 l0 -990 705 0 705 0 0 -325 0 -325 -1110 0 -1110 0 0 851 0
850 -1010 -676 c-555 -371 -1010 -673 -1010 -671 0 5 488 400 1875 1517 467
376 870 701 895 721 25 20 48 37 53 37 4 1 7 -444 7 -989z"/>
</g>
</svg>
